<svg xmlns="http://www.w3.org/2000/svg" viewBox="0 0 800 400" aria-label="Concurrency Scaling">
  <title>Concurrency Scaling</title>
  <style>text { font-family: system-ui, -apple-system, sans-serif; }</style>
  <text x="400" y="30" text-anchor="middle" font-size="16" font-weight="bold" fill="#1e293b">Concurrency Scaling</text>
  <line x1="80" y1="340" x2="720" y2="340" stroke="#cbd5e1" stroke-width="1"/>
  <text x="400" y="390" text-anchor="middle" font-size="12" fill="#64748b">Concurrent connections</text>
    <polyline points="80,337.9016490690623 293.3333333333333,323.7300893416128 506.66666666666663,240.85922038958094 720,143.2028644220973" fill="none" stroke="#22c55e" stroke-width="2"/>
    <circle cx="80" cy="337.9016490690623" r="4" fill="#22c55e"/>
    <circle cx="293.3333333333333" cy="323.7300893416128" r="4" fill="#22c55e"/>
    <circle cx="506.66666666666663" cy="240.85922038958094" r="4" fill="#22c55e"/>
    <circle cx="720" cy="143.2028644220973" r="4" fill="#22c55e"/>
    <polyline points="80,336.9795665344567 293.3333333333333,298.09359650457753 506.66666666666663,222.4501038532856 720,98.33333333333331" fill="none" stroke="#ef4444" stroke-width="2"/>
    <circle cx="80" cy="336.9795665344567" r="4" fill="#ef4444"/>
    <circle cx="293.3333333333333" cy="298.09359650457753" r="4" fill="#ef4444"/>
    <circle cx="506.66666666666663" cy="222.4501038532856" r="4" fill="#ef4444"/>
    <circle cx="720" cy="98.33333333333331" r="4" fill="#ef4444"/>
  <text x="80" y="360" text-anchor="middle" font-size="12" fill="#334155">1</text>
  <text x="293.3333333333333" y="360" text-anchor="middle" font-size="12" fill="#334155">10</text>
  <text x="506.66666666666663" y="360" text-anchor="middle" font-size="12" fill="#334155">50</text>
  <text x="720" y="360" text-anchor="middle" font-size="12" fill="#334155">100</text>
  <rect x="730" y="50" width="12" height="12" fill="#22c55e" rx="2"/>
  <text x="746" y="60" font-size="11" fill="#334155">p50</text>
  <rect x="730" y="72" width="12" height="12" fill="#ef4444" rx="2"/>
  <text x="746" y="82" font-size="11" fill="#334155">p95</text>
</svg>