<svg xmlns="http://www.w3.org/2000/svg" viewBox="0 0 800 340" font-family="system-ui, -apple-system, sans-serif" font-size="13">
  <defs>
    <marker id="arrow" viewBox="0 0 10 6" refX="10" refY="3" markerWidth="10" markerHeight="6" orient="auto-start-reverse">
      <path d="M0,0 L10,3 L0,6 Z" fill="#64748b"/>
    </marker>
    <marker id="arrow-accent" viewBox="0 0 10 6" refX="10" refY="3" markerWidth="10" markerHeight="6" orient="auto-start-reverse">
      <path d="M0,0 L10,3 L0,6 Z" fill="#3b82f6"/>
    </marker>
  </defs>

  <!-- Background -->
  <rect width="800" height="340" rx="8" fill="#f8fafc" stroke="#e2e8f0" stroke-width="1"/>

  <!-- Title -->
  <text x="400" y="28" text-anchor="middle" font-size="15" font-weight="600" fill="#1e293b">MCP-Guard Architecture</text>

  <!-- Client box -->
  <rect x="20" y="55" width="100" height="44" rx="6" fill="#f1f5f9" stroke="#cbd5e1" stroke-width="1.5"/>
  <text x="70" y="81" text-anchor="middle" font-weight="500" fill="#334155">MCP Client</text>

  <!-- Arrow: Client -> Bridge -->
  <line x1="120" y1="77" x2="158" y2="77" stroke="#64748b" stroke-width="1.5" marker-end="url(#arrow)"/>
  <text x="139" y="70" text-anchor="middle" font-size="10" fill="#94a3b8">stdio</text>

  <!-- Bridge box -->
  <rect x="160" y="55" width="100" height="44" rx="6" fill="#eff6ff" stroke="#93c5fd" stroke-width="1.5"/>
  <text x="210" y="75" text-anchor="middle" font-weight="500" fill="#1e40af">Bridge</text>
  <text x="210" y="89" text-anchor="middle" font-size="10" fill="#60a5fa">~50 lines, no policy</text>

  <!-- Arrow: Bridge -> Daemon -->
  <line x1="260" y1="77" x2="298" y2="77" stroke="#64748b" stroke-width="1.5" marker-end="url(#arrow)"/>
  <text x="279" y="70" text-anchor="middle" font-size="10" fill="#94a3b8">socket</text>

  <!-- Daemon container -->
  <rect x="300" y="42" width="480" height="286" rx="8" fill="#fefce8" stroke="#fde68a" stroke-width="1.5" stroke-dasharray="6,3"/>
  <text x="540" y="60" text-anchor="middle" font-size="12" font-weight="600" fill="#a16207">Daemon Process</text>

  <!-- Interceptor Pipeline container -->
  <rect x="320" y="68" width="300" height="56" rx="6" fill="white" stroke="#e2e8f0" stroke-width="1"/>
  <text x="340" y="84" font-size="11" font-weight="600" fill="#475569">Interceptor Pipeline (fail-closed)</text>

  <!-- Pipeline stages -->
  <rect x="330" y="92" width="48" height="24" rx="4" fill="#dbeafe" stroke="#93c5fd" stroke-width="1"/>
  <text x="354" y="108" text-anchor="middle" font-size="10" font-weight="500" fill="#1e40af">Auth</text>

  <rect x="384" y="92" width="48" height="24" rx="4" fill="#dbeafe" stroke="#93c5fd" stroke-width="1"/>
  <text x="408" y="108" text-anchor="middle" font-size="10" font-weight="500" fill="#1e40af">Rate</text>

  <rect x="438" y="92" width="48" height="24" rx="4" fill="#dbeafe" stroke="#93c5fd" stroke-width="1"/>
  <text x="462" y="108" text-anchor="middle" font-size="10" font-weight="500" fill="#1e40af">Perms</text>

  <rect x="492" y="92" width="60" height="24" rx="4" fill="#dbeafe" stroke="#93c5fd" stroke-width="1"/>
  <text x="522" y="108" text-anchor="middle" font-size="10" font-weight="500" fill="#1e40af">Sampling</text>

  <rect x="558" y="92" width="48" height="24" rx="4" fill="#fce7f3" stroke="#f9a8d4" stroke-width="1"/>
  <text x="582" y="108" text-anchor="middle" font-size="10" font-weight="500" fill="#9d174d">PII</text>

  <!-- Arrows between pipeline stages -->
  <line x1="378" y1="104" x2="384" y2="104" stroke="#93c5fd" stroke-width="1"/>
  <line x1="432" y1="104" x2="438" y2="104" stroke="#93c5fd" stroke-width="1"/>
  <line x1="486" y1="104" x2="492" y2="104" stroke="#93c5fd" stroke-width="1"/>
  <line x1="552" y1="104" x2="558" y2="104" stroke="#93c5fd" stroke-width="1"/>

  <!-- Arrow: Pipeline -> Upstream -->
  <line x1="620" y1="96" x2="648" y2="96" stroke="#64748b" stroke-width="1.5" marker-end="url(#arrow)"/>

  <!-- Upstream box -->
  <rect x="650" y="74" width="110" height="44" rx="6" fill="#f1f5f9" stroke="#cbd5e1" stroke-width="1.5"/>
  <text x="705" y="94" text-anchor="middle" font-weight="500" fill="#334155">Upstream</text>
  <text x="705" y="108" text-anchor="middle" font-size="10" fill="#94a3b8">MCP Server</text>

  <!-- Audit Tap -->
  <rect x="320" y="148" width="140" height="44" rx="6" fill="#f0fdf4" stroke="#86efac" stroke-width="1.5"/>
  <text x="390" y="168" text-anchor="middle" font-weight="500" fill="#166534">Audit Tap</text>
  <text x="390" y="182" text-anchor="middle" font-size="10" fill="#4ade80">structural observer</text>

  <!-- Arrow down from pipeline area to audit -->
  <line x1="390" y1="124" x2="390" y2="146" stroke="#3b82f6" stroke-width="1.5" marker-end="url(#arrow-accent)"/>
  <text x="420" y="138" font-size="10" fill="#3b82f6">all messages</text>

  <!-- SQLite box -->
  <rect x="320" y="210" width="140" height="36" rx="6" fill="#faf5ff" stroke="#d8b4fe" stroke-width="1.5"/>
  <text x="390" y="233" text-anchor="middle" font-weight="500" fill="#6b21a8">SQLite (SQLCipher)</text>

  <!-- Arrow: Audit -> SQLite -->
  <line x1="390" y1="192" x2="390" y2="208" stroke="#64748b" stroke-width="1.5" marker-end="url(#arrow)"/>

  <!-- Dashboard box -->
  <rect x="500" y="148" width="140" height="44" rx="6" fill="#fff7ed" stroke="#fdba74" stroke-width="1.5"/>
  <text x="570" y="168" text-anchor="middle" font-weight="500" fill="#9a3412">Dashboard</text>
  <text x="570" y="182" text-anchor="middle" font-size="10" fill="#fb923c">/healthz, /api/status</text>

  <!-- Config box -->
  <rect x="500" y="210" width="140" height="36" rx="6" fill="#f0f9ff" stroke="#7dd3fc" stroke-width="1.5"/>
  <text x="570" y="233" text-anchor="middle" font-weight="500" fill="#0369a1">Config (YAML)</text>

  <!-- Arrow: Config -> Pipeline (conceptual) -->
  <line x1="570" y1="210" x2="570" y2="124" stroke="#64748b" stroke-width="1" stroke-dasharray="4,3" marker-end="url(#arrow)"/>
  <text x="588" y="168" font-size="10" fill="#94a3b8">policies</text>

  <!-- Legend -->
  <rect x="320" y="265" width="300" height="50" rx="4" fill="white" stroke="#e2e8f0" stroke-width="1"/>
  <text x="335" y="280" font-size="10" font-weight="600" fill="#64748b">DECISIONS:</text>
  <rect x="335" y="288" width="10" height="10" rx="2" fill="#dcfce7" stroke="#86efac" stroke-width="1"/>
  <text x="350" y="297" font-size="10" fill="#64748b">PASS</text>
  <rect x="390" y="288" width="10" height="10" rx="2" fill="#fef3c7" stroke="#fde68a" stroke-width="1"/>
  <text x="405" y="297" font-size="10" fill="#64748b">MODIFY</text>
  <rect x="460" y="288" width="10" height="10" rx="2" fill="#fecaca" stroke="#fca5a5" stroke-width="1"/>
  <text x="475" y="297" font-size="10" fill="#64748b">BLOCK</text>
  <text x="530" y="297" font-size="10" fill="#94a3b8">Any error or timeout -> BLOCK (fail-closed)</text>
</svg>
