<svg xmlns="http://www.w3.org/2000/svg" viewBox="0 0 880 360" font-family="system-ui, -apple-system, sans-serif" font-size="13">
  <defs>
    <marker id="arrow" viewBox="0 0 10 6" refX="10" refY="3" markerWidth="10" markerHeight="6" orient="auto-start-reverse">
      <path d="M0,0 L10,3 L0,6 Z" fill="#64748b"/>
    </marker>
    <marker id="arrow-accent" viewBox="0 0 10 6" refX="10" refY="3" markerWidth="10" markerHeight="6" orient="auto-start-reverse">
      <path d="M0,0 L10,3 L0,6 Z" fill="#3b82f6"/>
    </marker>
  </defs>

  <!-- Background -->
  <rect width="880" height="360" rx="8" fill="#f8fafc" stroke="#e2e8f0" stroke-width="1"/>

  <!-- Title -->
  <text x="440" y="28" text-anchor="middle" font-size="15" font-weight="600" fill="#1e293b">MCP-Guard Architecture</text>

  <!-- Client box -->
  <rect x="20" y="60" width="100" height="44" rx="6" fill="#f1f5f9" stroke="#cbd5e1" stroke-width="1.5"/>
  <text x="70" y="86" text-anchor="middle" font-weight="500" fill="#334155">MCP Client</text>

  <!-- Arrow: Client -> Bridge -->
  <line x1="120" y1="82" x2="158" y2="82" stroke="#64748b" stroke-width="1.5" marker-end="url(#arrow)"/>
  <text x="139" y="75" text-anchor="middle" font-size="10" fill="#94a3b8">stdio</text>

  <!-- Bridge box -->
  <rect x="160" y="60" width="120" height="44" rx="6" fill="#eff6ff" stroke="#93c5fd" stroke-width="1.5"/>
  <text x="220" y="79" text-anchor="middle" font-weight="500" fill="#1e40af">Bridge</text>
  <text x="220" y="93" text-anchor="middle" font-size="10" fill="#60a5fa">~50 lines, no policy</text>

  <!-- Arrow: Bridge -> Daemon -->
  <line x1="280" y1="82" x2="318" y2="82" stroke="#64748b" stroke-width="1.5" marker-end="url(#arrow)"/>
  <text x="299" y="75" text-anchor="middle" font-size="10" fill="#94a3b8">socket</text>

  <!-- Daemon container -->
  <rect x="320" y="42" width="540" height="306" rx="8" fill="#fefce8" stroke="#fde68a" stroke-width="1.5" stroke-dasharray="6,3"/>
  <text x="590" y="60" text-anchor="middle" font-size="12" font-weight="600" fill="#a16207">Daemon Process</text>

  <!-- Interceptor Pipeline container -->
  <rect x="340" y="70" width="340" height="56" rx="6" fill="white" stroke="#e2e8f0" stroke-width="1"/>
  <text x="360" y="86" font-size="11" font-weight="600" fill="#475569">Interceptor Pipeline (fail-closed)</text>

  <!-- Pipeline stages -->
  <rect x="350" y="94" width="50" height="24" rx="4" fill="#dbeafe" stroke="#93c5fd" stroke-width="1"/>
  <text x="375" y="110" text-anchor="middle" font-size="10" font-weight="500" fill="#1e40af">Auth</text>

  <rect x="408" y="94" width="50" height="24" rx="4" fill="#dbeafe" stroke="#93c5fd" stroke-width="1"/>
  <text x="433" y="110" text-anchor="middle" font-size="10" font-weight="500" fill="#1e40af">Rate</text>

  <rect x="466" y="94" width="50" height="24" rx="4" fill="#dbeafe" stroke="#93c5fd" stroke-width="1"/>
  <text x="491" y="110" text-anchor="middle" font-size="10" font-weight="500" fill="#1e40af">Perms</text>

  <rect x="524" y="94" width="64" height="24" rx="4" fill="#dbeafe" stroke="#93c5fd" stroke-width="1"/>
  <text x="556" y="110" text-anchor="middle" font-size="10" font-weight="500" fill="#1e40af">Sampling</text>

  <rect x="596" y="94" width="50" height="24" rx="4" fill="#fce7f3" stroke="#f9a8d4" stroke-width="1"/>
  <text x="621" y="110" text-anchor="middle" font-size="10" font-weight="500" fill="#9d174d">PII</text>

  <!-- Arrows between pipeline stages -->
  <line x1="400" y1="106" x2="408" y2="106" stroke="#93c5fd" stroke-width="1"/>
  <line x1="458" y1="106" x2="466" y2="106" stroke="#93c5fd" stroke-width="1"/>
  <line x1="516" y1="106" x2="524" y2="106" stroke="#93c5fd" stroke-width="1"/>
  <line x1="588" y1="106" x2="596" y2="106" stroke="#93c5fd" stroke-width="1"/>

  <!-- Arrow: Pipeline -> Upstream -->
  <line x1="680" y1="98" x2="714" y2="98" stroke="#64748b" stroke-width="1.5" marker-end="url(#arrow)"/>

  <!-- Upstream box -->
  <rect x="716" y="76" width="120" height="44" rx="6" fill="#f1f5f9" stroke="#cbd5e1" stroke-width="1.5"/>
  <text x="776" y="96" text-anchor="middle" font-weight="500" fill="#334155">Upstream</text>
  <text x="776" y="110" text-anchor="middle" font-size="10" fill="#94a3b8">MCP Server</text>

  <!-- Audit Tap -->
  <rect x="340" y="155" width="150" height="44" rx="6" fill="#f0fdf4" stroke="#86efac" stroke-width="1.5"/>
  <text x="415" y="175" text-anchor="middle" font-weight="500" fill="#166534">Audit Tap</text>
  <text x="415" y="189" text-anchor="middle" font-size="10" fill="#4ade80">structural observer</text>

  <!-- Arrow down from pipeline to audit -->
  <line x1="415" y1="126" x2="415" y2="153" stroke="#3b82f6" stroke-width="1.5" marker-end="url(#arrow-accent)"/>
  <text x="450" y="143" font-size="10" fill="#3b82f6">all messages</text>

  <!-- SQLite box -->
  <rect x="340" y="220" width="150" height="40" rx="6" fill="#faf5ff" stroke="#d8b4fe" stroke-width="1.5"/>
  <text x="415" y="245" text-anchor="middle" font-weight="500" fill="#6b21a8">SQLite (SQLCipher)</text>

  <!-- Arrow: Audit -> SQLite -->
  <line x1="415" y1="199" x2="415" y2="218" stroke="#64748b" stroke-width="1.5" marker-end="url(#arrow)"/>

  <!-- Dashboard box -->
  <rect x="540" y="155" width="150" height="44" rx="6" fill="#fff7ed" stroke="#fdba74" stroke-width="1.5"/>
  <text x="615" y="175" text-anchor="middle" font-weight="500" fill="#9a3412">Dashboard</text>
  <text x="615" y="189" text-anchor="middle" font-size="10" fill="#fb923c">/healthz, /api/status</text>

  <!-- Config box -->
  <rect x="540" y="220" width="150" height="40" rx="6" fill="#f0f9ff" stroke="#7dd3fc" stroke-width="1.5"/>
  <text x="615" y="245" text-anchor="middle" font-weight="500" fill="#0369a1">Config (YAML)</text>

  <!-- Arrow: Config -> Pipeline (conceptual, offset right to avoid dashboard) -->
  <line x1="700" y1="240" x2="700" y2="126" stroke="#64748b" stroke-width="1" stroke-dasharray="4,3" marker-end="url(#arrow)"/>
  <text x="714" y="186" font-size="10" fill="#94a3b8">policies</text>

  <!-- Legend -->
  <rect x="340" y="282" width="500" height="48" rx="4" fill="white" stroke="#e2e8f0" stroke-width="1"/>
  <text x="358" y="300" font-size="10" font-weight="600" fill="#64748b">DECISIONS:</text>
  <rect x="358" y="308" width="10" height="10" rx="2" fill="#dcfce7" stroke="#86efac" stroke-width="1"/>
  <text x="374" y="317" font-size="10" fill="#64748b">PASS</text>
  <rect x="410" y="308" width="10" height="10" rx="2" fill="#fef3c7" stroke="#fde68a" stroke-width="1"/>
  <text x="426" y="317" font-size="10" fill="#64748b">MODIFY</text>
  <rect x="475" y="308" width="10" height="10" rx="2" fill="#fecaca" stroke="#fca5a5" stroke-width="1"/>
  <text x="491" y="317" font-size="10" fill="#64748b">BLOCK</text>
  <text x="540" y="317" font-size="10" fill="#94a3b8">Any error or timeout → BLOCK (fail-closed)</text>
</svg>
